<?xml version="1.0" standalone="no"?>
<!DOCTYPE svg PUBLIC "-//W3C//DTD SVG 20010904//EN"
 "http://www.w3.org/TR/2001/REC-SVG-20010904/DTD/svg10.dtd">
<svg version="1.0" xmlns="http://www.w3.org/2000/svg"
 width="307.000000pt" height="307.000000pt" viewBox="0 0 307.000000 307.000000"
 preserveAspectRatio="xMidYMid meet">
<metadata>
Created by potrace 1.14, written by Peter Selinger 2001-2017
</metadata>
<g transform="translate(0.000000,307.000000) scale(0.100000,-0.100000)"
fill="#000000" stroke="none">
<path d="M1467 2894 c-1 -1 -40 -4 -87 -7 -47 -4 -98 -9 -115 -12 -27 -5 -134
-31 -160 -38 -55 -16 -60 -18 -145 -53 -24 -11 -46 -17 -49 -16 -2 2 -7 0 -10
-5 -3 -4 -24 -17 -46 -28 -22 -11 -44 -23 -50 -27 -5 -4 -41 -28 -80 -54 -38
-25 -71 -50 -73 -55 -2 -5 -10 -9 -18 -9 -8 0 -14 -7 -14 -16 0 -8 -4 -13 -8
-10 -9 5 -136 -122 -187 -187 -16 -21 -36 -44 -43 -52 -6 -7 -12 -16 -12 -19
0 -2 -17 -31 -39 -63 -21 -32 -41 -68 -45 -80 -4 -13 -12 -23 -17 -23 -5 0 -8
-3 -7 -7 1 -8 -12 -42 -37 -98 -25 -54 -72 -204 -62 -198 5 3 4 -3 -1 -14 -6
-11 -12 -31 -14 -46 -2 -14 -6 -29 -10 -32 -3 -3 -4 -19 -2 -35 2 -17 0 -30
-4 -30 -4 0 -7 -38 -7 -84 0 -49 -4 -82 -9 -78 -6 3 -6 -3 -2 -14 4 -10 9 -46
11 -79 7 -110 14 -171 24 -197 5 -14 7 -28 4 -31 -3 -3 -1 -12 3 -19 5 -7 10
-22 12 -33 5 -25 7 -36 15 -55 3 -8 13 -37 22 -65 9 -27 21 -55 27 -62 6 -7 8
-13 5 -13 -17 0 125 -242 172 -292 13 -16 22 -28 19 -28 -12 0 127 -142 182
-187 30 -24 69 -56 87 -70 32 -26 57 -42 103 -65 14 -7 27 -15 30 -18 14 -14
68 -39 74 -33 3 3 6 1 6 -5 0 -7 5 -12 10 -12 6 0 29 -9 53 -19 41 -20 151
-57 195 -66 12 -3 32 -7 44 -10 136 -29 331 -34 493 -10 63 9 199 46 213 57 6
6 12 8 12 4 0 -9 104 34 112 47 4 7 8 9 8 4 0 -9 124 52 128 64 2 5 8 9 13 9
11 0 72 42 77 53 2 4 8 7 13 7 26 0 199 163 264 248 21 29 43 52 49 52 5 0 7
3 3 6 -3 4 6 22 20 41 52 68 157 278 147 295 -3 4 0 8 5 8 6 0 11 7 11 15 0 8
7 34 15 58 8 24 17 54 19 68 3 13 5 24 6 24 1 0 3 9 5 20 1 11 6 38 9 60 28
171 20 446 -14 535 -1 3 -2 8 -1 12 0 4 -6 29 -15 55 -9 27 -18 53 -19 58 -9
40 -79 205 -87 205 -4 0 -8 8 -8 19 0 10 -7 24 -15 31 -8 7 -15 20 -15 29 0 9
-9 23 -19 31 -11 7 -18 17 -15 22 3 4 0 8 -5 8 -6 0 -11 6 -11 13 0 6 -14 27
-31 45 -16 17 -28 32 -25 32 17 0 -162 180 -221 223 -24 17 -43 34 -43 37 0 4
-13 13 -30 20 -16 7 -30 16 -30 21 0 5 -7 9 -15 9 -8 0 -15 4 -15 8 0 4 -16
14 -35 21 -19 7 -35 16 -35 20 0 4 -18 14 -40 21 -22 7 -40 17 -40 22 0 4 -3
7 -7 6 -7 -1 -30 7 -83 29 -8 3 -24 8 -34 10 -11 2 -24 7 -30 12 -11 8 -127
34 -152 34 -8 0 -14 3 -14 7 0 4 -6 7 -12 7 -7 0 -51 4 -98 8 -115 9 -150 12
-153 9z"/>
</g>
</svg>
